# xmcd
#
# Track frame offsets: 
#        150
#        4742
#        8544
#        21529
#        34181
#        52612
#        67441
#        77496
#        87875
#        101135
#        131794
#        145758
#        151616
#        162270
#        185360
#        193841
#        208559
#        219589
#        238935
#        304235
#        312048
#        314359
#        321152
#        324546
#        326404
#        327853
#        332130
#        335106
#        336559
#        346980
#        348460
#        353672
#
# Disc length: 4734 seconds
#
# Revision: 0
# Processed by: cddbd v1.5.2PL0 Copyright (c) Steve Scherf et al.
# Submitted via: ExactAudioCopy v0.95b4
#
DISCID=dc127c20
DTITLE=The Beatles  - AB  Road - Complete Purple Chick Set v1.1 Jan.09
DTITLE=Various Artist - D2  FLAC
DYEAR=1900
DGENRE=
TTITLE0=Slate Announcement
TTITLE1=For You Blue 9.24
TTITLE2=For You Blue 9.25
TTITLE3=For You Blue 9.26
TTITLE4=For You Blue 9.27
TTITLE5=Improvisation 9.28
TTITLE6=Two Of Us 9.29
TTITLE7=Two Of Us 9.30
TTITLE8=Two Of Us 9.31
TTITLE9=Two Of Us 9.32
TTITLE10=Two Of Us 9.33
TTITLE11=Two Of Us 9.34
TTITLE12=Two Of Us 9.35
TTITLE13=Two Of Us 9.36
TTITLE14=Baa, Baa, Black Sheep 9.37
TTITLE15=Don't Let Me Down 9.38
TTITLE16=Suzy's Parlour 9.39
TTITLE17=I've Got A Feeling 9.40
TTITLE18=I've Got A Feeling 9.41
TTITLE19=I've Got A Feeling 9.42
TTITLE20=I've Got A Feeling 9.43
TTITLE21=I've Got A Feeling 9.44
TTITLE22=One After 909 9.45
TTITLE23=One After 909 9.46
TTITLE24=One After 909 9.47
TTITLE25=One After 909 9.48
TTITLE26=Norwegian Wood 9.49
TTITLE27=She Came In Through The Bathroom Window 9.50
TTITLE28=She Came In Through The Bathroom Window 9.51
TTITLE29=She Came In Through The Bathroom Window 9.52
TTITLE30=Be Bop A Lula 9.53
TTITLE31=She Came In Through The Bathroom Window 9.54
EXTD=
EXTT0=
EXTT1=
EXTT2=
EXTT3=
EXTT4=
EXTT5=
EXTT6=
EXTT7=
EXTT8=
EXTT9=
EXTT10=
EXTT11=
EXTT12=
EXTT13=
EXTT14=
EXTT15=
EXTT16=
EXTT17=
EXTT18=
EXTT19=
EXTT20=
EXTT21=
EXTT22=
EXTT23=
EXTT24=
EXTT25=
EXTT26=
EXTT27=
EXTT28=
EXTT29=
EXTT30=
EXTT31=
PLAYORDER=
